<svg xmlns="http://www.w3.org/2000/svg" viewBox="0 0 420 208" role="img" aria-labelledby="title">
  <title id="title">Cely</title>
  <g fill="#FFFCF7" transform="translate(0 154) scale(.1 -.1)">
    <path d="M933 32Q990 32 1045.5 48.5Q1101 65 1154 102L1353 411H1384L1301 29Q1194 -1 1098.5 -12.5Q1003 -24 889 -24Q652 -24 469.5 60.5Q287 145 183.5 312Q80 479 80 729Q80 944 180 1107.5Q280 1271 459 1362.5Q638 1454 873 1454Q950 1454 1015.5 1447Q1081 1440 1155 1424L1250 1495H1265L1366 970H1335L1136 1283Q1058 1344 988.5 1367.5Q919 1391 845 1391Q729 1391 633.5 1333Q538 1275 481.5 1140Q425 1005 425 773Q425 538 494.5 372Q564 206 679.5 119Q795 32 933 32Z"/>
    <path d="M1944 1048Q2123 1048 2224.5 942.5Q2326 837 2340 642H1714Q1714 631 1714 619Q1714 381 1801 278Q1888 175 2054 175Q2136 175 2206.5 205Q2277 235 2339 305L2360 288Q2259 113 2155.5 44.5Q2052 -24 1919 -24Q1776 -24 1666.5 36Q1557 96 1495 211.5Q1433 327 1433 492Q1433 641 1492 768Q1551 895 1664.5 971.5Q1778 1048 1944 1048ZM1911 986Q1829 986 1779.5 922Q1730 858 1718 714H2069Q2055 864 2017 925Q1979 986 1911 986Z"/>
    <path d="M2807 62 2926 30V0H2396V30L2515 62V1253Q2496 1267 2453.5 1296Q2411 1325 2353 1366V1390L2793 1488H2807Z"/>
    <path d="M3185 -461Q3115 -461 3069 -423.5Q3023 -386 3023 -315Q3023 -267 3046.5 -240Q3070 -213 3092 -213Q3106 -213 3148.5 -235.5Q3191 -258 3256 -258Q3336 -258 3383.5 -230.5Q3431 -203 3469 -120L3503 -44L2991 952L2877 992V1024H3444V991L3316 958L3642 295L3875 963L3745 991V1024H4072V991L3957 963L3547 -99Q3493 -237 3438.5 -316Q3384 -395 3322 -428Q3260 -461 3185 -461ZM3150 -452Q3240 -458 3370 -454Q3500 -450 3600 -420H4100V-370H3600Q3450 -388 3260 -418L3170 -414Z"/>
  </g>
</svg>
