<svg xmlns="http://www.w3.org/2000/svg" viewBox="0 0 48 48" role="img" aria-labelledby="title">
  <title id="title">Cely</title>
  <path fill="#21182B" d="M933 32Q990 32 1045.5 48.5Q1101 65 1154 102L1353 411H1384L1301 29Q1194 -1 1098.5 -12.5Q1003 -24 889 -24Q652 -24 469.5 60.5Q287 145 183.5 312Q80 479 80 729Q80 944 180 1107.5Q280 1271 459 1362.5Q638 1454 873 1454Q950 1454 1015.5 1447Q1081 1440 1155 1424L1250 1495H1265L1366 970H1335L1136 1283Q1058 1344 988.5 1367.5Q919 1391 845 1391Q729 1391 633.5 1333Q538 1275 481.5 1140Q425 1005 425 773Q425 538 494.5 372Q564 206 679.5 119Q795 32 933 32Z" transform="translate(3 44) scale(.028 -.028)"/>
</svg>
